<svg width="73mm" height="73mm" version="1.1" viewBox="0 0 73 73" xmlns="http://www.w3.org/2000/svg"><path d="M2,2H3V3H2zM3,2H4V3H3zM4,2H5V3H4zM5,2H6V3H5zM6,2H7V3H6zM7,2H8V3H7zM8,2H9V3H8zM15,2H16V3H15zM17,2H18V3H17zM18,2H19V3H18zM19,2H20V3H19zM20,2H21V3H20zM22,2H23V3H22zM23,2H24V3H23zM25,2H26V3H25zM27,2H28V3H27zM29,2H30V3H29zM30,2H31V3H30zM34,2H35V3H34zM35,2H36V3H35zM39,2H40V3H39zM40,2H41V3H40zM42,2H43V3H42zM43,2H44V3H43zM44,2H45V3H44zM45,2H46V3H45zM48,2H49V3H48zM49,2H50V3H49zM50,2H51V3H50zM51,2H52V3H51zM52,2H53V3H52zM53,2H54V3H53zM54,2H55V3H54zM55,2H56V3H55zM56,2H57V3H56zM57,2H58V3H57zM58,2H59V3H58zM59,2H60V3H59zM60,2H61V3H60zM61,2H62V3H61zM62,2H63V3H62zM64,2H65V3H64zM65,2H66V3H65zM66,2H67V3H66zM67,2H68V3H67zM68,2H69V3H68zM69,2H70V3H69zM70,2H71V3H70zM2,3H3V4H2zM8,3H9V4H8zM13,3H14V4H13zM16,3H17V4H16zM17,3H18V4H17zM20,3H21V4H20zM23,3H24V4H23zM32,3H33V4H32zM35,3H36V4H35zM40,3H41V4H40zM41,3H42V4H41zM42,3H43V4H42zM45,3H46V4H45zM46,3H47V4H46zM48,3H49V4H48zM49,3H50V4H49zM52,3H53V4H52zM53,3H54V4H53zM55,3H56V4H55zM58,3H59V4H58zM59,3H60V4H59zM64,3H65V4H64zM70,3H71V4H70zM2,4H3V5H2zM4,4H5V5H4zM5,4H6V5H5zM6,4H7V5H6zM8,4H9V5H8zM11,4H12V5H11zM12,4H13V5H12zM13,4H14V5H13zM15,4H16V5H15zM17,4H18V5H17zM20,4H21V5H20zM21,4H22V5H21zM22,4H23V5H22zM24,4H25V5H24zM25,4H26V5H25zM26,4H27V5H26zM27,4H28V5H27zM30,4H31V5H30zM33,4H34V5H33zM34,4H35V5H34zM35,4H36V5H35zM38,4H39V5H38zM39,4H40V5H39zM40,4H41V5H40zM42,4H43V5H42zM43,4H44V5H43zM46,4H47V5H46zM51,4H52V5H51zM54,4H55V5H54zM56,4H57V5H56zM60,4H61V5H60zM64,4H65V5H64zM66,4H67V5H66zM67,4H68V5H67zM68,4H69V5H68zM70,4H71V5H70zM2,5H3V6H2zM4,5H5V6H4zM5,5H6V6H5zM6,5H7V6H6zM8,5H9V6H8zM12,5H13V6H12zM14,5H15V6H14zM15,5H16V6H15zM16,5H17V6H16zM17,5H18V6H17zM18,5H19V6H18zM19,5H20V6H19zM20,5H21V6H20zM21,5H22V6H21zM22,5H23V6H22zM25,5H26V6H25zM26,5H27V6H26zM27,5H28V6H27zM29,5H30V6H29zM30,5H31V6H30zM35,5H36V6H35zM39,5H40V6H39zM41,5H42V6H41zM44,5H45V6H44zM49,5H50V6H49zM51,5H52V6H51zM56,5H57V6H56zM57,5H58V6H57zM62,5H63V6H62zM64,5H65V6H64zM66,5H67V6H66zM67,5H68V6H67zM68,5H69V6H68zM70,5H71V6H70zM2,6H3V7H2zM4,6H5V7H4zM5,6H6V7H5zM6,6H7V7H6zM8,6H9V7H8zM13,6H14V7H13zM14,6H15V7H14zM17,6H18V7H17zM18,6H19V7H18zM20,6H21V7H20zM21,6H22V7H21zM28,6H29V7H28zM29,6H30V7H29zM31,6H32V7H31zM33,6H34V7H33zM34,6H35V7H34zM35,6H36V7H35zM36,6H37V7H36zM37,6H38V7H37zM38,6H39V7H38zM40,6H41V7H40zM42,6H43V7H42zM44,6H45V7H44zM47,6H48V7H47zM52,6H53V7H52zM54,6H55V7H54zM55,6H56V7H55zM56,6H57V7H56zM58,6H59V7H58zM59,6H60V7H59zM60,6H61V7H60zM62,6H63V7H62zM64,6H65V7H64zM66,6H67V7H66zM67,6H68V7H67zM68,6H69V7H68zM70,6H71V7H70zM2,7H3V8H2zM8,7H9V8H8zM10,7H11V8H10zM13,7H14V8H13zM14,7H15V8H14zM16,7H17V8H16zM17,7H18V8H17zM18,7H19V8H18zM19,7H20V8H19zM20,7H21V8H20zM21,7H22V8H21zM22,7H23V8H22zM24,7H25V8H24zM25,7H26V8H25zM29,7H30V8H29zM31,7H32V8H31zM33,7H34V8H33zM34,7H35V8H34zM38,7H39V8H38zM41,7H42V8H41zM43,7H44V8H43zM44,7H45V8H44zM47,7H48V8H47zM49,7H50V8H49zM50,7H51V8H50zM51,7H52V8H51zM52,7H53V8H52zM57,7H58V8H57zM59,7H60V8H59zM60,7H61V8H60zM64,7H65V8H64zM70,7H71V8H70zM2,8H3V9H2zM3,8H4V9H3zM4,8H5V9H4zM5,8H6V9H5zM6,8H7V9H6zM7,8H8V9H7zM8,8H9V9H8zM10,8H11V9H10zM12,8H13V9H12zM14,8H15V9H14zM16,8H17V9H16zM18,8H19V9H18zM20,8H21V9H20zM22,8H23V9H22zM24,8H25V9H24zM26,8H27V9H26zM28,8H29V9H28zM30,8H31V9H30zM32,8H33V9H32zM34,8H35V9H34zM36,8H37V9H36zM38,8H39V9H38zM40,8H41V9H40zM42,8H43V9H42zM44,8H45V9H44zM46,8H47V9H46zM48,8H49V9H48zM50,8H51V9H50zM52,8H53V9H52zM54,8H55V9H54zM56,8H57V9H56zM58,8H59V9H58zM60,8H61V9H60zM62,8H63V9H62zM64,8H65V9H64zM65,8H66V9H65zM66,8H67V9H66zM67,8H68V9H67zM68,8H69V9H68zM69,8H70V9H69zM70,8H71V9H70zM11,9H12V10H11zM15,9H16V10H15zM16,9H17V10H16zM18,9H19V10H18zM21,9H22V10H21zM23,9H24V10H23zM28,9H29V10H28zM29,9H30V10H29zM30,9H31V10H30zM33,9H34V10H33zM34,9H35V10H34zM38,9H39V10H38zM40,9H41V10H40zM43,9H44V10H43zM45,9H46V10H45zM46,9H47V10H46zM47,9H48V10H47zM49,9H50V10H49zM52,9H53V10H52zM53,9H54V10H53zM54,9H55V10H54zM58,9H59V10H58zM62,9H63V10H62zM2,10H3V11H2zM5,10H6V11H5zM7,10H8V11H7zM8,10H9V11H8zM10,10H11V11H10zM12,10H13V11H12zM14,10H15V11H14zM16,10H17V11H16zM20,10H21V11H20zM21,10H22V11H21zM22,10H23V11H22zM23,10H24V11H23zM24,10H25V11H24zM26,10H27V11H26zM27,10H28V11H27zM28,10H29V11H28zM32,10H33V11H32zM34,10H35V11H34zM35,10H36V11H35zM36,10H37V11H36zM37,10H38V11H37zM38,10H39V11H38zM39,10H40V11H39zM40,10H41V11H40zM41,10H42V11H41zM42,10H43V11H42zM44,10H45V11H44zM45,10H46V11H45zM47,10H48V11H47zM50,10H51V11H50zM54,10H55V11H54zM56,10H57V11H56zM57,10H58V11H57zM61,10H62V11H61zM63,10H64V11H63zM65,10H66V11H65zM2,11H3V12H2zM3,11H4V12H3zM4,11H5V12H4zM5,11H6V12H5zM6,11H7V12H6zM9,11H10V12H9zM15,11H16V12H15zM18,11H19V12H18zM19,11H20V12H19zM20,11H21V12H20zM21,11H22V12H21zM23,11H24V12H23zM24,11H25V12H24zM25,11H26V12H25zM26,11H27V12H26zM27,11H28V12H27zM31,11H32V12H31zM33,11H34V12H33zM35,11H36V12H35zM38,11H39V12H38zM39,11H40V12H39zM43,11H44V12H43zM46,11H47V12H46zM47,11H48V12H47zM49,11H50V12H49zM51,11H52V12H51zM53,11H54V12H53zM57,11H58V12H57zM65,11H66V12H65zM69,11H70V12H69zM70,11H71V12H70zM2,12H3V13H2zM3,12H4V13H3zM4,12H5V13H4zM5,12H6V13H5zM6,12H7V13H6zM7,12H8V13H7zM8,12H9V13H8zM11,12H12V13H11zM16,12H17V13H16zM17,12H18V13H17zM20,12H21V13H20zM22,12H23V13H22zM23,12H24V13H23zM27,12H28V13H27zM33,12H34V13H33zM36,12H37V13H36zM38,12H39V13H38zM43,12H44V13H43zM44,12H45V13H44zM47,12H48V13H47zM48,12H49V13H48zM50,12H51V13H50zM53,12H54V13H53zM55,12H56V13H55zM56,12H57V13H56zM57,12H58V13H57zM58,12H59V13H58zM60,12H61V13H60zM61,12H62V13H61zM63,12H64V13H63zM67,12H68V13H67zM70,12H71V13H70zM3,13H4V14H3zM4,13H5V14H4zM10,13H11V14H10zM13,13H14V14H13zM16,13H17V14H16zM18,13H19V14H18zM24,13H25V14H24zM26,13H27V14H26zM27,13H28V14H27zM31,13H32V14H31zM32,13H33V14H32zM34,13H35V14H34zM38,13H39V14H38zM40,13H41V14H40zM41,13H42V14H41zM42,13H43V14H42zM47,13H48V14H47zM49,13H50V14H49zM50,13H51V14H50zM51,13H52V14H51zM54,13H55V14H54zM56,13H57V14H56zM58,13H59V14H58zM60,13H61V14H60zM63,13H64V14H63zM64,13H65V14H64zM65,13H66V14H65zM66,13H67V14H66zM67,13H68V14H67zM4,14H5V15H4zM6,14H7V15H6zM8,14H9V15H8zM9,14H10V15H9zM10,14H11V15H10zM12,14H13V15H12zM13,14H14V15H13zM14,14H15V15H14zM15,14H16V15H15zM16,14H17V15H16zM18,14H19V15H18zM19,14H20V15H19zM21,14H22V15H21zM22,14H23V15H22zM24,14H25V15H24zM27,14H28V15H27zM30,14H31V15H30zM31,14H32V15H31zM32,14H33V15H32zM34,14H35V15H34zM37,14H38V15H37zM38,14H39V15H38zM40,14H41V15H40zM41,14H42V15H41zM42,14H43V15H42zM43,14H44V15H43zM46,14H47V15H46zM48,14H49V15H48zM49,14H50V15H49zM50,14H51V15H50zM53,14H54V15H53zM54,14H55V15H54zM57,14H58V15H57zM58,14H59V15H58zM62,14H63V15H62zM64,14H65V15H64zM65,14H66V15H65zM66,14H67V15H66zM67,14H68V15H67zM69,14H70V15H69zM70,14H71V15H70zM3,15H4V16H3zM4,15H5V16H4zM5,15H6V16H5zM6,15H7V16H6zM7,15H8V16H7zM9,15H10V16H9zM11,15H12V16H11zM14,15H15V16H14zM16,15H17V16H16zM18,15H19V16H18zM19,15H20V16H19zM20,15H21V16H20zM22,15H23V16H22zM24,15H25V16H24zM30,15H31V16H30zM33,15H34V16H33zM35,15H36V16H35zM36,15H37V16H36zM38,15H39V16H38zM41,15H42V16H41zM43,15H44V16H43zM45,15H46V16H45zM48,15H49V16H48zM49,15H50V16H49zM51,15H52V16H51zM54,15H55V16H54zM57,15H58V16H57zM60,15H61V16H60zM63,15H64V16H63zM66,15H67V16H66zM68,15H69V16H68zM2,16H3V17H2zM4,16H5V17H4zM6,16H7V17H6zM8,16H9V17H8zM12,16H13V17H12zM13,16H14V17H13zM14,16H15V17H14zM16,16H17V17H16zM18,16H19V17H18zM19,16H20V17H19zM21,16H22V17H21zM24,16H25V17H24zM25,16H26V17H25zM26,16H27V17H26zM27,16H28V17H27zM28,16H29V17H28zM29,16H30V17H29zM30,16H31V17H30zM31,16H32V17H31zM32,16H33V17H32zM34,16H35V17H34zM36,16H37V17H36zM38,16H39V17H38zM39,16H40V17H39zM40,16H41V17H40zM42,16H43V17H42zM43,16H44V17H43zM45,16H46V17H45zM46,16H47V17H46zM49,16H50V17H49zM50,16H51V17H50zM52,16H53V17H52zM54,16H55V17H54zM55,16H56V17H55zM56,16H57V17H56zM60,16H61V17H60zM61,16H62V17H61zM67,16H68V17H67zM69,16H70V17H69zM3,17H4V18H3zM4,17H5V18H4zM5,17H6V18H5zM7,17H8V18H7zM9,17H10V18H9zM10,17H11V18H10zM11,17H12V18H11zM13,17H14V18H13zM17,17H18V18H17zM18,17H19V18H18zM19,17H20V18H19zM21,17H22V18H21zM22,17H23V18H22zM26,17H27V18H26zM27,17H28V18H27zM28,17H29V18H28zM29,17H30V18H29zM30,17H31V18H30zM33,17H34V18H33zM38,17H39V18H38zM39,17H40V18H39zM41,17H42V18H41zM43,17H44V18H43zM45,17H46V18H45zM46,17H47V18H46zM49,17H50V18H49zM50,17H51V18H50zM51,17H52V18H51zM52,17H53V18H52zM54,17H55V18H54zM55,17H56V18H55zM57,17H58V18H57zM59,17H60V18H59zM60,17H61V18H60zM62,17H63V18H62zM63,17H64V18H63zM65,17H66V18H65zM5,18H6V19H5zM8,18H9V19H8zM9,18H10V19H9zM11,18H12V19H11zM13,18H14V19H13zM14,18H15V19H14zM15,18H16V19H15zM16,18H17V19H16zM17,18H18V19H17zM19,18H20V19H19zM20,18H21V19H20zM21,18H22V19H21zM23,18H24V19H23zM24,18H25V19H24zM25,18H26V19H25zM27,18H28V19H27zM31,18H32V19H31zM32,18H33V19H32zM35,18H36V19H35zM37,18H38V19H37zM40,18H41V19H40zM41,18H42V19H41zM46,18H47V19H46zM47,18H48V19H47zM49,18H50V19H49zM50,18H51V19H50zM51,18H52V19H51zM52,18H53V19H52zM55,18H56V19H55zM56,18H57V19H56zM58,18H59V19H58zM60,18H61V19H60zM65,18H66V19H65zM67,18H68V19H67zM4,19H5V20H4zM5,19H6V20H5zM10,19H11V20H10zM16,19H17V20H16zM18,19H19V20H18zM21,19H22V20H21zM22,19H23V20H22zM23,19H24V20H23zM26,19H27V20H26zM27,19H28V20H27zM28,19H29V20H28zM31,19H32V20H31zM32,19H33V20H32zM34,19H35V20H34zM35,19H36V20H35zM38,19H39V20H38zM39,19H40V20H39zM40,19H41V20H40zM41,19H42V20H41zM42,19H43V20H42zM43,19H44V20H43zM45,19H46V20H45zM46,19H47V20H46zM47,19H48V20H47zM52,19H53V20H52zM53,19H54V20H53zM54,19H55V20H54zM55,19H56V20H55zM57,19H58V20H57zM63,19H64V20H63zM64,19H65V20H64zM65,19H66V20H65zM69,19H70V20H69zM70,19H71V20H70zM7,20H8V21H7zM8,20H9V21H8zM9,20H10V21H9zM10,20H11V21H10zM13,20H14V21H13zM16,20H17V21H16zM17,20H18V21H17zM19,20H20V21H19zM22,20H23V21H22zM23,20H24V21H23zM25,20H26V21H25zM30,20H31V21H30zM32,20H33V21H32zM33,20H34V21H33zM37,20H38V21H37zM38,20H39V21H38zM39,20H40V21H39zM40,20H41V21H40zM44,20H45V21H44zM45,20H46V21H45zM46,20H47V21H46zM47,20H48V21H47zM49,20H50V21H49zM51,20H52V21H51zM54,20H55V21H54zM57,20H58V21H57zM58,20H59V21H58zM59,20H60V21H59zM60,20H61V21H60zM62,20H63V21H62zM64,20H65V21H64zM65,20H66V21H65zM66,20H67V21H66zM67,20H68V21H67zM68,20H69V21H68zM69,20H70V21H69zM70,20H71V21H70zM2,21H3V22H2zM3,21H4V22H3zM4,21H5V22H4zM5,21H6V22H5zM11,21H12V22H11zM12,21H13V22H12zM13,21H14V22H13zM18,21H19V22H18zM22,21H23V22H22zM24,21H25V22H24zM25,21H26V22H25zM26,21H27V22H26zM28,21H29V22H28zM29,21H30V22H29zM30,21H31V22H30zM31,21H32V22H31zM33,21H34V22H33zM35,21H36V22H35zM36,21H37V22H36zM37,21H38V22H37zM39,21H40V22H39zM41,21H42V22H41zM42,21H43V22H42zM44,21H45V22H44zM45,21H46V22H45zM50,21H51V22H50zM52,21H53V22H52zM53,21H54V22H53zM55,21H56V22H55zM58,21H59V22H58zM59,21H60V22H59zM62,21H63V22H62zM63,21H64V22H63zM65,21H66V22H65zM66,21H67V22H66zM2,22H3V23H2zM4,22H5V23H4zM7,22H8V23H7zM8,22H9V23H8zM13,22H14V23H13zM15,22H16V23H15zM18,22H19V23H18zM19,22H20V23H19zM21,22H22V23H21zM23,22H24V23H23zM28,22H29V23H28zM29,22H30V23H29zM30,22H31V23H30zM32,22H33V23H32zM33,22H34V23H33zM36,22H37V23H36zM38,22H39V23H38zM40,22H41V23H40zM41,22H42V23H41zM45,22H46V23H45zM48,22H49V23H48zM49,22H50V23H49zM50,22H51V23H50zM51,22H52V23H51zM52,22H53V23H52zM53,22H54V23H53zM54,22H55V23H54zM57,22H58V23H57zM60,22H61V23H60zM61,22H62V23H61zM63,22H64V23H63zM64,22H65V23H64zM65,22H66V23H65zM66,22H67V23H66zM2,23H3V24H2zM3,23H4V24H3zM6,23H7V24H6zM9,23H10V24H9zM11,23H12V24H11zM16,23H17V24H16zM18,23H19V24H18zM19,23H20V24H19zM23,23H24V24H23zM27,23H28V24H27zM31,23H32V24H31zM32,23H33V24H32zM35,23H36V24H35zM37,23H38V24H37zM41,23H42V24H41zM42,23H43V24H42zM46,23H47V24H46zM53,23H54V24H53zM54,23H55V24H54zM66,23H67V24H66zM69,23H70V24H69zM70,23H71V24H70zM2,24H3V25H2zM3,24H4V25H3zM4,24H5V25H4zM7,24H8V25H7zM8,24H9V25H8zM13,24H14V25H13zM15,24H16V25H15zM16,24H17V25H16zM17,24H18V25H17zM19,24H20V25H19zM20,24H21V25H20zM21,24H22V25H21zM23,24H24V25H23zM25,24H26V25H25zM26,24H27V25H26zM27,24H28V25H27zM28,24H29V25H28zM32,24H33V25H32zM33,24H34V25H33zM35,24H36V25H35zM37,24H38V25H37zM38,24H39V25H38zM39,24H40V25H39zM40,24H41V25H40zM41,24H42V25H41zM42,24H43V25H42zM47,24H48V25H47zM48,24H49V25H48zM49,24H50V25H49zM52,24H53V25H52zM54,24H55V25H54zM56,24H57V25H56zM60,24H61V25H60zM63,24H64V25H63zM64,24H65V25H64zM68,24H69V25H68zM70,24H71V25H70zM4,25H5V26H4zM5,25H6V26H5zM6,25H7V26H6zM7,25H8V26H7zM12,25H13V26H12zM13,25H14V26H13zM16,25H17V26H16zM19,25H20V26H19zM21,25H22V26H21zM22,25H23V26H22zM28,25H29V26H28zM34,25H35V26H34zM37,25H38V26H37zM39,25H40V26H39zM42,25H43V26H42zM43,25H44V26H43zM47,25H48V26H47zM49,25H50V26H49zM52,25H53V26H52zM54,25H55V26H54zM57,25H58V26H57zM58,25H59V26H58zM59,25H60V26H59zM65,25H66V26H65zM66,25H67V26H66zM67,25H68V26H67zM69,25H70V26H69zM70,25H71V26H70zM2,26H3V27H2zM3,26H4V27H3zM4,26H5V27H4zM8,26H9V27H8zM9,26H10V27H9zM10,26H11V27H10zM16,26H17V27H16zM17,26H18V27H17zM20,26H21V27H20zM21,26H22V27H21zM22,26H23V27H22zM23,26H24V27H23zM24,26H25V27H24zM25,26H26V27H25zM26,26H27V27H26zM28,26H29V27H28zM31,26H32V27H31zM32,26H33V27H32zM36,26H37V27H36zM37,26H38V27H37zM39,26H40V27H39zM40,26H41V27H40zM42,26H43V27H42zM46,26H47V27H46zM47,26H48V27H47zM49,26H50V27H49zM50,26H51V27H50zM52,26H53V27H52zM54,26H55V27H54zM58,26H59V27H58zM59,26H60V27H59zM60,26H61V27H60zM65,26H66V27H65zM66,26H67V27H66zM68,26H69V27H68zM70,26H71V27H70zM2,27H3V28H2zM3,27H4V28H3zM10,27H11V28H10zM12,27H13V28H12zM13,27H14V28H13zM14,27H15V28H14zM16,27H17V28H16zM17,27H18V28H17zM18,27H19V28H18zM20,27H21V28H20zM23,27H24V28H23zM25,27H26V28H25zM26,27H27V28H26zM29,27H30V28H29zM30,27H31V28H30zM38,27H39V28H38zM39,27H40V28H39zM41,27H42V28H41zM42,27H43V28H42zM43,27H44V28H43zM46,27H47V28H46zM47,27H48V28H47zM48,27H49V28H48zM49,27H50V28H49zM50,27H51V28H50zM51,27H52V28H51zM57,27H58V28H57zM60,27H61V28H60zM65,27H66V28H65zM66,27H67V28H66zM67,27H68V28H67zM69,27H70V28H69zM70,27H71V28H70zM2,28H3V29H2zM3,28H4V29H3zM6,28H7V29H6zM7,28H8V29H7zM8,28H9V29H8zM9,28H10V29H9zM10,28H11V29H10zM12,28H13V29H12zM14,28H15V29H14zM16,28H17V29H16zM19,28H20V29H19zM20,28H21V29H20zM22,28H23V29H22zM23,28H24V29H23zM24,28H25V29H24zM29,28H30V29H29zM30,28H31V29H30zM32,28H33V29H32zM33,28H34V29H33zM34,28H35V29H34zM35,28H36V29H35zM38,28H39V29H38zM40,28H41V29H40zM41,28H42V29H41zM42,28H43V29H42zM46,28H47V29H46zM47,28H48V29H47zM49,28H50V29H49zM51,28H52V29H51zM52,28H53V29H52zM55,28H56V29H55zM56,28H57V29H56zM57,28H58V29H57zM58,28H59V29H58zM59,28H60V29H59zM61,28H62V29H61zM62,28H63V29H62zM63,28H64V29H63zM64,28H65V29H64zM65,28H66V29H65zM66,28H67V29H66zM67,28H68V29H67zM68,28H69V29H68zM69,28H70V29H69zM4,29H5V30H4zM5,29H6V30H5zM6,29H7V30H6zM9,29H10V30H9zM10,29H11V30H10zM11,29H12V30H11zM13,29H14V30H13zM17,29H18V30H17zM18,29H19V30H18zM19,29H20V30H19zM21,29H22V30H21zM22,29H23V30H22zM24,29H25V30H24zM26,29H27V30H26zM28,29H29V30H28zM33,29H34V30H33zM39,29H40V30H39zM42,29H43V30H42zM43,29H44V30H43zM45,29H46V30H45zM50,29H51V30H50zM52,29H53V30H52zM54,29H55V30H54zM60,29H61V30H60zM64,29H65V30H64zM65,29H66V30H65zM69,29H70V30H69zM70,29H71V30H70zM5,30H6V31H5zM8,30H9V31H8zM12,30H13V31H12zM17,30H18V31H17zM19,30H20V31H19zM20,30H21V31H20zM23,30H24V31H23zM24,30H25V31H24zM25,30H26V31H25zM30,30H31V31H30zM31,30H32V31H31zM32,30H33V31H32zM33,30H34V31H33zM34,30H35V31H34zM36,30H37V31H36zM37,30H38V31H37zM38,30H39V31H38zM39,30H40V31H39zM40,30H41V31H40zM47,30H48V31H47zM50,30H51V31H50zM51,30H52V31H51zM55,30H56V31H55zM56,30H57V31H56zM58,30H59V31H58zM61,30H62V31H61zM65,30H66V31H65zM69,30H70V31H69zM70,30H71V31H70zM3,31H4V32H3zM5,31H6V32H5zM7,31H8V32H7zM9,31H10V32H9zM14,31H15V32H14zM15,31H16V32H15zM16,31H17V32H16zM18,31H19V32H18zM19,31H20V32H19zM20,31H21V32H20zM23,31H24V32H23zM24,31H25V32H24zM25,31H26V32H25zM32,31H33V32H32zM35,31H36V32H35zM38,31H39V32H38zM40,31H41V32H40zM41,31H42V32H41zM42,31H43V32H42zM43,31H44V32H43zM45,31H46V32H45zM47,31H48V32H47zM49,31H50V32H49zM50,31H51V32H50zM53,31H54V32H53zM54,31H55V32H54zM57,31H58V32H57zM64,31H65V32H64zM65,31H66V32H65zM66,31H67V32H66zM68,31H69V32H68zM4,32H5V33H4zM6,32H7V33H6zM7,32H8V33H7zM8,32H9V33H8zM10,32H11V33H10zM12,32H13V33H12zM13,32H14V33H13zM15,32H16V33H15zM17,32H18V33H17zM18,32H19V33H18zM19,32H20V33H19zM21,32H22V33H21zM23,32H24V33H23zM26,32H27V33H26zM27,32H28V33H27zM30,32H31V33H30zM31,32H32V33H31zM34,32H35V33H34zM38,32H39V33H38zM43,32H44V33H43zM45,32H46V33H45zM47,32H48V33H47zM52,32H53V33H52zM55,32H56V33H55zM59,32H60V33H59zM60,32H61V33H60zM68,32H69V33H68zM70,32H71V33H70zM2,33H3V34H2zM6,33H7V34H6zM7,33H8V34H7zM11,33H12V34H11zM13,33H14V34H13zM15,33H16V34H15zM19,33H20V34H19zM20,33H21V34H20zM27,33H28V34H27zM28,33H29V34H28zM29,33H30V34H29zM31,33H32V34H31zM32,33H33V34H32zM33,33H34V34H33zM36,33H37V34H36zM37,33H38V34H37zM40,33H41V34H40zM41,33H42V34H41zM43,33H44V34H43zM45,33H46V34H45zM46,33H47V34H46zM47,33H48V34H47zM49,33H50V34H49zM51,33H52V34H51zM54,33H55V34H54zM55,33H56V34H55zM56,33H57V34H56zM57,33H58V34H57zM60,33H61V34H60zM62,33H63V34H62zM63,33H64V34H63zM65,33H66V34H65zM66,33H67V34H66zM69,33H70V34H69zM2,34H3V35H2zM3,34H4V35H3zM5,34H6V35H5zM6,34H7V35H6zM7,34H8V35H7zM8,34H9V35H8zM9,34H10V35H9zM10,34H11V35H10zM16,34H17V35H16zM17,34H18V35H17zM18,34H19V35H18zM20,34H21V35H20zM21,34H22V35H21zM24,34H25V35H24zM25,34H26V35H25zM26,34H27V35H26zM30,34H31V35H30zM34,34H35V35H34zM35,34H36V35H35zM36,34H37V35H36zM37,34H38V35H37zM38,34H39V35H38zM40,34H41V35H40zM41,34H42V35H41zM42,34H43V35H42zM43,34H44V35H43zM47,34H48V35H47zM50,34H51V35H50zM51,34H52V35H51zM53,34H54V35H53zM54,34H55V35H54zM55,34H56V35H55zM57,34H58V35H57zM59,34H60V35H59zM60,34H61V35H60zM61,34H62V35H61zM62,34H63V35H62zM63,34H64V35H63zM64,34H65V35H64zM65,34H66V35H65zM66,34H67V35H66zM67,34H68V35H67zM2,35H3V36H2zM3,35H4V36H3zM6,35H7V36H6zM10,35H11V36H10zM11,35H12V36H11zM14,35H15V36H14zM16,35H17V36H16zM17,35H18V36H17zM18,35H19V36H18zM19,35H20V36H19zM22,35H23V36H22zM28,35H29V36H28zM30,35H31V36H30zM31,35H32V36H31zM33,35H34V36H33zM34,35H35V36H34zM38,35H39V36H38zM41,35H42V36H41zM45,35H46V36H45zM50,35H51V36H50zM57,35H58V36H57zM61,35H62V36H61zM62,35H63V36H62zM66,35H67V36H66zM69,35H70V36H69zM70,35H71V36H70zM4,36H5V37H4zM6,36H7V37H6zM8,36H9V37H8zM10,36H11V37H10zM11,36H12V37H11zM13,36H14V37H13zM16,36H17V37H16zM17,36H18V37H17zM18,36H19V37H18zM19,36H20V37H19zM20,36H21V37H20zM21,36H22V37H21zM22,36H23V37H22zM26,36H27V37H26zM28,36H29V37H28zM30,36H31V37H30zM32,36H33V37H32zM34,36H35V37H34zM36,36H37V37H36zM38,36H39V37H38zM39,36H40V37H39zM40,36H41V37H40zM41,36H42V37H41zM42,36H43V37H42zM50,36H51V37H50zM52,36H53V37H52zM54,36H55V37H54zM55,36H56V37H55zM56,36H57V37H56zM59,36H60V37H59zM61,36H62V37H61zM62,36H63V37H62zM64,36H65V37H64zM66,36H67V37H66zM67,36H68V37H67zM68,36H69V37H68zM70,36H71V37H70zM5,37H6V38H5zM6,37H7V38H6zM10,37H11V38H10zM13,37H14V38H13zM17,37H18V38H17zM19,37H20V38H19zM20,37H21V38H20zM21,37H22V38H21zM25,37H26V38H25zM30,37H31V38H30zM33,37H34V38H33zM34,37H35V38H34zM38,37H39V38H38zM39,37H40V38H39zM42,37H43V38H42zM45,37H46V38H45zM46,37H47V38H46zM48,37H49V38H48zM53,37H54V38H53zM54,37H55V38H54zM57,37H58V38H57zM58,37H59V38H58zM60,37H61V38H60zM62,37H63V38H62zM66,37H67V38H66zM69,37H70V38H69zM70,37H71V38H70zM2,38H3V39H2zM3,38H4V39H3zM5,38H6V39H5zM6,38H7V39H6zM7,38H8V39H7zM8,38H9V39H8zM9,38H10V39H9zM10,38H11V39H10zM12,38H13V39H12zM13,38H14V39H13zM14,38H15V39H14zM15,38H16V39H15zM18,38H19V39H18zM20,38H21V39H20zM21,38H22V39H21zM23,38H24V39H23zM24,38H25V39H24zM25,38H26V39H25zM26,38H27V39H26zM27,38H28V39H27zM28,38H29V39H28zM29,38H30V39H29zM30,38H31V39H30zM31,38H32V39H31zM32,38H33V39H32zM34,38H35V39H34zM35,38H36V39H35zM36,38H37V39H36zM37,38H38V39H37zM38,38H39V39H38zM40,38H41V39H40zM41,38H42V39H41zM42,38H43V39H42zM45,38H46V39H45zM46,38H47V39H46zM49,38H50V39H49zM52,38H53V39H52zM53,38H54V39H53zM54,38H55V39H54zM55,38H56V39H55zM57,38H58V39H57zM58,38H59V39H58zM59,38H60V39H59zM61,38H62V39H61zM62,38H63V39H62zM63,38H64V39H63zM64,38H65V39H64zM65,38H66V39H65zM66,38H67V39H66zM67,38H68V39H67zM69,38H70V39H69zM70,38H71V39H70zM3,39H4V40H3zM4,39H5V40H4zM5,39H6V40H5zM7,39H8V40H7zM10,39H11V40H10zM13,39H14V40H13zM14,39H15V40H14zM15,39H16V40H15zM16,39H17V40H16zM17,39H18V40H17zM18,39H19V40H18zM22,39H23V40H22zM30,39H31V40H30zM33,39H34V40H33zM34,39H35V40H34zM38,39H39V40H38zM39,39H40V40H39zM42,39H43V40H42zM45,39H46V40H45zM46,39H47V40H46zM49,39H50V40H49zM50,39H51V40H50zM51,39H52V40H51zM53,39H54V40H53zM57,39H58V40H57zM58,39H59V40H58zM60,39H61V40H60zM61,39H62V40H61zM62,39H63V40H62zM63,39H64V40H63zM66,39H67V40H66zM67,39H68V40H67zM68,39H69V40H68zM70,39H71V40H70zM2,40H3V41H2zM3,40H4V41H3zM4,40H5V41H4zM5,40H6V41H5zM6,40H7V41H6zM7,40H8V41H7zM8,40H9V41H8zM10,40H11V41H10zM11,40H12V41H11zM12,40H13V41H12zM13,40H14V41H13zM15,40H16V41H15zM16,40H17V41H16zM20,40H21V41H20zM22,40H23V41H22zM27,40H28V41H27zM28,40H29V41H28zM30,40H31V41H30zM31,40H32V41H31zM32,40H33V41H32zM36,40H37V41H36zM37,40H38V41H37zM38,40H39V41H38zM40,40H41V41H40zM41,40H42V41H41zM42,40H43V41H42zM43,40H44V41H43zM44,40H45V41H44zM45,40H46V41H45zM48,40H49V41H48zM52,40H53V41H52zM54,40H55V41H54zM55,40H56V41H55zM56,40H57V41H56zM57,40H58V41H57zM58,40H59V41H58zM61,40H62V41H61zM62,40H63V41H62zM63,40H64V41H63zM65,40H66V41H65zM66,40H67V41H66zM68,40H69V41H68zM69,40H70V41H69zM2,41H3V42H2zM3,41H4V42H3zM4,41H5V42H4zM5,41H6V42H5zM6,41H7V42H6zM7,41H8V42H7zM10,41H11V42H10zM12,41H13V42H12zM13,41H14V42H13zM14,41H15V42H14zM15,41H16V42H15zM17,41H18V42H17zM18,41H19V42H18zM20,41H21V42H20zM29,41H30V42H29zM31,41H32V42H31zM32,41H33V42H32zM33,41H34V42H33zM36,41H37V42H36zM42,41H43V42H42zM45,41H46V42H45zM46,41H47V42H46zM48,41H49V42H48zM49,41H50V42H49zM50,41H51V42H50zM52,41H53V42H52zM56,41H57V42H56zM58,41H59V42H58zM59,41H60V42H59zM62,41H63V42H62zM63,41H64V42H63zM2,42H3V43H2zM3,42H4V43H3zM4,42H5V43H4zM5,42H6V43H5zM6,42H7V43H6zM8,42H9V43H8zM9,42H10V43H9zM11,42H12V43H11zM12,42H13V43H12zM17,42H18V43H17zM19,42H20V43H19zM22,42H23V43H22zM23,42H24V43H23zM24,42H25V43H24zM26,42H27V43H26zM29,42H30V43H29zM31,42H32V43H31zM32,42H33V43H32zM34,42H35V43H34zM39,42H40V43H39zM40,42H41V43H40zM45,42H46V43H45zM46,42H47V43H46zM47,42H48V43H47zM48,42H49V43H48zM49,42H50V43H49zM50,42H51V43H50zM51,42H52V43H51zM52,42H53V43H52zM53,42H54V43H53zM55,42H56V43H55zM58,42H59V43H58zM59,42H60V43H59zM60,42H61V43H60zM64,42H65V43H64zM65,42H66V43H65zM66,42H67V43H66zM68,42H69V43H68zM69,42H70V43H69zM2,43H3V44H2zM5,43H6V44H5zM6,43H7V44H6zM11,43H12V44H11zM12,43H13V44H12zM13,43H14V44H13zM14,43H15V44H14zM15,43H16V44H15zM17,43H18V44H17zM18,43H19V44H18zM20,43H21V44H20zM21,43H22V44H21zM22,43H23V44H22zM24,43H25V44H24zM25,43H26V44H25zM26,43H27V44H26zM28,43H29V44H28zM31,43H32V44H31zM32,43H33V44H32zM36,43H37V44H36zM38,43H39V44H38zM40,43H41V44H40zM49,43H50V44H49zM52,43H53V44H52zM53,43H54V44H53zM54,43H55V44H54zM55,43H56V44H55zM57,43H58V44H57zM58,43H59V44H58zM64,43H65V44H64zM67,43H68V44H67zM68,43H69V44H68zM69,43H70V44H69zM2,44H3V45H2zM3,44H4V45H3zM6,44H7V45H6zM7,44H8V45H7zM8,44H9V45H8zM9,44H10V45H9zM10,44H11V45H10zM11,44H12V45H11zM13,44H14V45H13zM14,44H15V45H14zM15,44H16V45H15zM17,44H18V45H17zM19,44H20V45H19zM23,44H24V45H23zM24,44H25V45H24zM28,44H29V45H28zM30,44H31V45H30zM31,44H32V45H31zM34,44H35V45H34zM35,44H36V45H35zM37,44H38V45H37zM38,44H39V45H38zM43,44H44V45H43zM45,44H46V45H45zM48,44H49V45H48zM50,44H51V45H50zM52,44H53V45H52zM55,44H56V45H55zM56,44H57V45H56zM62,44H63V45H62zM63,44H64V45H63zM64,44H65V45H64zM65,44H66V45H65zM66,44H67V45H66zM67,44H68V45H67zM68,44H69V45H68zM69,44H70V45H69zM70,44H71V45H70zM9,45H10V46H9zM11,45H12V46H11zM12,45H13V46H12zM16,45H17V46H16zM17,45H18V46H17zM18,45H19V46H18zM19,45H20V46H19zM20,45H21V46H20zM21,45H22V46H21zM22,45H23V46H22zM26,45H27V46H26zM29,45H30V46H29zM30,45H31V46H30zM31,45H32V46H31zM34,45H35V46H34zM35,45H36V46H35zM37,45H38V46H37zM40,45H41V46H40zM41,45H42V46H41zM44,45H45V46H44zM46,45H47V46H46zM47,45H48V46H47zM53,45H54V46H53zM54,45H55V46H54zM55,45H56V46H55zM57,45H58V46H57zM58,45H59V46H58zM60,45H61V46H60zM63,45H64V46H63zM66,45H67V46H66zM69,45H70V46H69zM70,45H71V46H70zM2,46H3V47H2zM3,46H4V47H3zM4,46H5V47H4zM6,46H7V47H6zM8,46H9V47H8zM10,46H11V47H10zM11,46H12V47H11zM16,46H17V47H16zM17,46H18V47H17zM18,46H19V47H18zM20,46H21V47H20zM21,46H22V47H21zM22,46H23V47H22zM23,46H24V47H23zM26,46H27V47H26zM27,46H28V47H27zM29,46H30V47H29zM31,46H32V47H31zM32,46H33V47H32zM33,46H34V47H33zM35,46H36V47H35zM36,46H37V47H36zM38,46H39V47H38zM39,46H40V47H39zM40,46H41V47H40zM41,46H42V47H41zM42,46H43V47H42zM43,46H44V47H43zM45,46H46V47H45zM47,46H48V47H47zM50,46H51V47H50zM51,46H52V47H51zM53,46H54V47H53zM54,46H55V47H54zM55,46H56V47H55zM57,46H58V47H57zM59,46H60V47H59zM60,46H61V47H60zM61,46H62V47H61zM63,46H64V47H63zM64,46H65V47H64zM67,46H68V47H67zM69,46H70V47H69zM70,46H71V47H70zM4,47H5V48H4zM10,47H11V48H10zM11,47H12V48H11zM12,47H13V48H12zM17,47H18V48H17zM18,47H19V48H18zM32,47H33V48H32zM33,47H34V48H33zM34,47H35V48H34zM35,47H36V48H35zM36,47H37V48H36zM37,47H38V48H37zM39,47H40V48H39zM41,47H42V48H41zM42,47H43V48H42zM44,47H45V48H44zM45,47H46V48H45zM47,47H48V48H47zM51,47H52V48H51zM53,47H54V48H53zM54,47H55V48H54zM57,47H58V48H57zM58,47H59V48H58zM59,47H60V48H59zM61,47H62V48H61zM63,47H64V48H63zM65,47H66V48H65zM67,47H68V48H67zM69,47H70V48H69zM70,47H71V48H70zM2,48H3V49H2zM3,48H4V49H3zM4,48H5V49H4zM5,48H6V49H5zM8,48H9V49H8zM10,48H11V49H10zM13,48H14V49H13zM14,48H15V49H14zM18,48H19V49H18zM20,48H21V49H20zM25,48H26V49H25zM29,48H30V49H29zM30,48H31V49H30zM31,48H32V49H31zM32,48H33V49H32zM34,48H35V49H34zM37,48H38V49H37zM38,48H39V49H38zM44,48H45V49H44zM45,48H46V49H45zM56,48H57V49H56zM57,48H58V49H57zM58,48H59V49H58zM59,48H60V49H59zM60,48H61V49H60zM61,48H62V49H61zM62,48H63V49H62zM63,48H64V49H63zM64,48H65V49H64zM65,48H66V49H65zM66,48H67V49H66zM70,48H71V49H70zM3,49H4V50H3zM6,49H7V50H6zM7,49H8V50H7zM9,49H10V50H9zM11,49H12V50H11zM13,49H14V50H13zM15,49H16V50H15zM16,49H17V50H16zM17,49H18V50H17zM20,49H21V50H20zM22,49H23V50H22zM23,49H24V50H23zM25,49H26V50H25zM28,49H29V50H28zM30,49H31V50H30zM37,49H38V50H37zM39,49H40V50H39zM40,49H41V50H40zM41,49H42V50H41zM43,49H44V50H43zM44,49H45V50H44zM45,49H46V50H45zM47,49H48V50H47zM48,49H49V50H48zM49,49H50V50H49zM50,49H51V50H50zM51,49H52V50H51zM52,49H53V50H52zM53,49H54V50H53zM54,49H55V50H54zM57,49H58V50H57zM58,49H59V50H58zM61,49H62V50H61zM62,49H63V50H62zM63,49H64V50H63zM66,49H67V50H66zM67,49H68V50H67zM69,49H70V50H69zM70,49H71V50H70zM2,50H3V51H2zM3,50H4V51H3zM4,50H5V51H4zM5,50H6V51H5zM8,50H9V51H8zM10,50H11V51H10zM11,50H12V51H11zM13,50H14V51H13zM14,50H15V51H14zM15,50H16V51H15zM17,50H18V51H17zM19,50H20V51H19zM21,50H22V51H21zM23,50H24V51H23zM24,50H25V51H24zM27,50H28V51H27zM29,50H30V51H29zM31,50H32V51H31zM32,50H33V51H32zM33,50H34V51H33zM36,50H37V51H36zM37,50H38V51H37zM41,50H42V51H41zM42,50H43V51H42zM46,50H47V51H46zM48,50H49V51H48zM49,50H50V51H49zM50,50H51V51H50zM53,50H54V51H53zM54,50H55V51H54zM55,50H56V51H55zM56,50H57V51H56zM57,50H58V51H57zM58,50H59V51H58zM60,50H61V51H60zM62,50H63V51H62zM65,50H66V51H65zM70,50H71V51H70zM2,51H3V52H2zM3,51H4V52H3zM4,51H5V52H4zM5,51H6V52H5zM7,51H8V52H7zM12,51H13V52H12zM14,51H15V52H14zM21,51H22V52H21zM24,51H25V52H24zM25,51H26V52H25zM26,51H27V52H26zM28,51H29V52H28zM30,51H31V52H30zM33,51H34V52H33zM34,51H35V52H34zM36,51H37V52H36zM37,51H38V52H37zM38,51H39V52H38zM41,51H42V52H41zM43,51H44V52H43zM46,51H47V52H46zM48,51H49V52H48zM49,51H50V52H49zM51,51H52V52H51zM53,51H54V52H53zM54,51H55V52H54zM57,51H58V52H57zM58,51H59V52H58zM59,51H60V52H59zM60,51H61V52H60zM62,51H63V52H62zM66,51H67V52H66zM69,51H70V52H69zM70,51H71V52H70zM2,52H3V53H2zM4,52H5V53H4zM6,52H7V53H6zM7,52H8V53H7zM8,52H9V53H8zM9,52H10V53H9zM10,52H11V53H10zM11,52H12V53H11zM12,52H13V53H12zM14,52H15V53H14zM15,52H16V53H15zM18,52H19V53H18zM20,52H21V53H20zM21,52H22V53H21zM22,52H23V53H22zM24,52H25V53H24zM25,52H26V53H25zM30,52H31V53H30zM31,52H32V53H31zM32,52H33V53H32zM34,52H35V53H34zM39,52H40V53H39zM40,52H41V53H40zM50,52H51V53H50zM52,52H53V53H52zM55,52H56V53H55zM56,52H57V53H56zM59,52H60V53H59zM62,52H63V53H62zM63,52H64V53H63zM65,52H66V53H65zM66,52H67V53H66zM67,52H68V53H67zM68,52H69V53H68zM3,53H4V54H3zM4,53H5V54H4zM6,53H7V54H6zM7,53H8V54H7zM9,53H10V54H9zM11,53H12V54H11zM14,53H15V54H14zM17,53H18V54H17zM18,53H19V54H18zM19,53H20V54H19zM20,53H21V54H20zM21,53H22V54H21zM22,53H23V54H22zM25,53H26V54H25zM27,53H28V54H27zM28,53H29V54H28zM29,53H30V54H29zM30,53H31V54H30zM31,53H32V54H31zM33,53H34V54H33zM37,53H38V54H37zM40,53H41V54H40zM41,53H42V54H41zM46,53H47V54H46zM47,53H48V54H47zM48,53H49V54H48zM49,53H50V54H49zM50,53H51V54H50zM56,53H57V54H56zM61,53H62V54H61zM62,53H63V54H62zM64,53H65V54H64zM65,53H66V54H65zM2,54H3V55H2zM4,54H5V55H4zM6,54H7V55H6zM7,54H8V55H7zM8,54H9V55H8zM13,54H14V55H13zM14,54H15V55H14zM15,54H16V55H15zM16,54H17V55H16zM17,54H18V55H17zM19,54H20V55H19zM21,54H22V55H21zM22,54H23V55H22zM23,54H24V55H23zM26,54H27V55H26zM27,54H28V55H27zM28,54H29V55H28zM29,54H30V55H29zM31,54H32V55H31zM32,54H33V55H32zM35,54H36V55H35zM37,54H38V55H37zM38,54H39V55H38zM39,54H40V55H39zM43,54H44V55H43zM46,54H47V55H46zM49,54H50V55H49zM50,54H51V55H50zM51,54H52V55H51zM52,54H53V55H52zM53,54H54V55H53zM58,54H59V55H58zM60,54H61V55H60zM62,54H63V55H62zM66,54H67V55H66zM70,54H71V55H70zM3,55H4V56H3zM4,55H5V56H4zM7,55H8V56H7zM9,55H10V56H9zM12,55H13V56H12zM13,55H14V56H13zM15,55H16V56H15zM18,55H19V56H18zM22,55H23V56H22zM24,55H25V56H24zM26,55H27V56H26zM27,55H28V56H27zM28,55H29V56H28zM32,55H33V56H32zM34,55H35V56H34zM35,55H36V56H35zM36,55H37V56H36zM41,55H42V56H41zM47,55H48V56H47zM49,55H50V56H49zM52,55H53V56H52zM53,55H54V56H53zM55,55H56V56H55zM57,55H58V56H57zM61,55H62V56H61zM63,55H64V56H63zM64,55H65V56H64zM67,55H68V56H67zM70,55H71V56H70zM3,56H4V57H3zM5,56H6V57H5zM8,56H9V57H8zM9,56H10V57H9zM11,56H12V57H11zM12,56H13V57H12zM13,56H14V57H13zM15,56H16V57H15zM16,56H17V57H16zM19,56H20V57H19zM20,56H21V57H20zM21,56H22V57H21zM25,56H26V57H25zM29,56H30V57H29zM30,56H31V57H30zM35,56H36V57H35zM36,56H37V57H36zM40,56H41V57H40zM42,56H43V57H42zM43,56H44V57H43zM45,56H46V57H45zM47,56H48V57H47zM51,56H52V57H51zM53,56H54V57H53zM54,56H55V57H54zM60,56H61V57H60zM62,56H63V57H62zM63,56H64V57H63zM64,56H65V57H64zM65,56H66V57H65zM66,56H67V57H66zM68,56H69V57H68zM69,56H70V57H69zM70,56H71V57H70zM2,57H3V58H2zM5,57H6V58H5zM10,57H11V58H10zM14,57H15V58H14zM15,57H16V58H15zM16,57H17V58H16zM17,57H18V58H17zM18,57H19V58H18zM19,57H20V58H19zM23,57H24V58H23zM24,57H25V58H24zM25,57H26V58H25zM26,57H27V58H26zM28,57H29V58H28zM29,57H30V58H29zM31,57H32V58H31zM34,57H35V58H34zM35,57H36V58H35zM36,57H37V58H36zM39,57H40V58H39zM40,57H41V58H40zM42,57H43V58H42zM48,57H49V58H48zM49,57H50V58H49zM50,57H51V58H50zM51,57H52V58H51zM55,57H56V58H55zM61,57H62V58H61zM62,57H63V58H62zM64,57H65V58H64zM65,57H66V58H65zM66,57H67V58H66zM69,57H70V58H69zM2,58H3V59H2zM3,58H4V59H3zM5,58H6V59H5zM8,58H9V59H8zM9,58H10V59H9zM11,58H12V59H11zM14,58H15V59H14zM15,58H16V59H15zM16,58H17V59H16zM17,58H18V59H17zM18,58H19V59H18zM19,58H20V59H19zM20,58H21V59H20zM22,58H23V59H22zM24,58H25V59H24zM27,58H28V59H27zM28,58H29V59H28zM29,58H30V59H29zM30,58H31V59H30zM32,58H33V59H32zM35,58H36V59H35zM36,58H37V59H36zM37,58H38V59H37zM38,58H39V59H38zM40,58H41V59H40zM42,58H43V59H42zM45,58H46V59H45zM48,58H49V59H48zM49,58H50V59H49zM50,58H51V59H50zM54,58H55V59H54zM56,58H57V59H56zM57,58H58V59H57zM59,58H60V59H59zM61,58H62V59H61zM62,58H63V59H62zM64,58H65V59H64zM65,58H66V59H65zM66,58H67V59H66zM67,58H68V59H67zM70,58H71V59H70zM3,59H4V60H3zM5,59H6V60H5zM7,59H8V60H7zM9,59H10V60H9zM10,59H11V60H10zM11,59H12V60H11zM12,59H13V60H12zM14,59H15V60H14zM17,59H18V60H17zM19,59H20V60H19zM23,59H24V60H23zM25,59H26V60H25zM26,59H27V60H26zM31,59H32V60H31zM32,59H33V60H32zM34,59H35V60H34zM35,59H36V60H35zM36,59H37V60H36zM37,59H38V60H37zM38,59H39V60H38zM39,59H40V60H39zM45,59H46V60H45zM46,59H47V60H46zM53,59H54V60H53zM58,59H59V60H58zM61,59H62V60H61zM62,59H63V60H62zM63,59H64V60H63zM64,59H65V60H64zM67,59H68V60H67zM2,60H3V61H2zM4,60H5V61H4zM6,60H7V61H6zM7,60H8V61H7zM8,60H9V61H8zM10,60H11V61H10zM11,60H12V61H11zM12,60H13V61H12zM15,60H16V61H15zM18,60H19V61H18zM20,60H21V61H20zM21,60H22V61H21zM22,60H23V61H22zM24,60H25V61H24zM25,60H26V61H25zM27,60H28V61H27zM28,60H29V61H28zM29,60H30V61H29zM30,60H31V61H30zM31,60H32V61H31zM32,60H33V61H32zM33,60H34V61H33zM34,60H35V61H34zM36,60H37V61H36zM37,60H38V61H37zM43,60H44V61H43zM45,60H46V61H45zM48,60H49V61H48zM49,60H50V61H49zM50,60H51V61H50zM52,60H53V61H52zM53,60H54V61H53zM54,60H55V61H54zM55,60H56V61H55zM56,60H57V61H56zM57,60H58V61H57zM59,60H60V61H59zM60,60H61V61H60zM61,60H62V61H61zM64,60H65V61H64zM66,60H67V61H66zM70,60H71V61H70zM2,61H3V62H2zM9,61H10V62H9zM12,61H13V62H12zM13,61H14V62H13zM14,61H15V62H14zM16,61H17V62H16zM19,61H20V62H19zM20,61H21V62H20zM21,61H22V62H21zM24,61H25V62H24zM25,61H26V62H25zM28,61H29V62H28zM29,61H30V62H29zM30,61H31V62H30zM31,61H32V62H31zM32,61H33V62H32zM33,61H34V62H33zM34,61H35V62H34zM35,61H36V62H35zM36,61H37V62H36zM37,61H38V62H37zM42,61H43V62H42zM43,61H44V62H43zM47,61H48V62H47zM48,61H49V62H48zM49,61H50V62H49zM50,61H51V62H50zM52,61H53V62H52zM53,61H54V62H53zM55,61H56V62H55zM57,61H58V62H57zM59,61H60V62H59zM61,61H62V62H61zM62,61H63V62H62zM63,61H64V62H63zM64,61H65V62H64zM66,61H67V62H66zM67,61H68V62H67zM69,61H70V62H69zM70,61H71V62H70zM2,62H3V63H2zM5,62H6V63H5zM6,62H7V63H6zM8,62H9V63H8zM13,62H14V63H13zM16,62H17V63H16zM17,62H18V63H17zM19,62H20V63H19zM21,62H22V63H21zM23,62H24V63H23zM24,62H25V63H24zM26,62H27V63H26zM27,62H28V63H27zM28,62H29V63H28zM32,62H33V63H32zM34,62H35V63H34zM35,62H36V63H35zM36,62H37V63H36zM37,62H38V63H37zM38,62H39V63H38zM40,62H41V63H40zM42,62H43V63H42zM46,62H47V63H46zM50,62H51V63H50zM52,62H53V63H52zM53,62H54V63H53zM54,62H55V63H54zM56,62H57V63H56zM57,62H58V63H57zM58,62H59V63H58zM60,62H61V63H60zM62,62H63V63H62zM63,62H64V63H63zM64,62H65V63H64zM65,62H66V63H65zM66,62H67V63H66zM68,62H69V63H68zM70,62H71V63H70zM10,63H11V64H10zM13,63H14V64H13zM14,63H15V64H14zM16,63H17V64H16zM17,63H18V64H17zM18,63H19V64H18zM19,63H20V64H19zM20,63H21V64H20zM21,63H22V64H21zM22,63H23V64H22zM24,63H25V64H24zM26,63H27V64H26zM27,63H28V64H27zM28,63H29V64H28zM30,63H31V64H30zM31,63H32V64H31zM32,63H33V64H32zM33,63H34V64H33zM34,63H35V64H34zM38,63H39V64H38zM39,63H40V64H39zM41,63H42V64H41zM42,63H43V64H42zM43,63H44V64H43zM46,63H47V64H46zM47,63H48V64H47zM48,63H49V64H48zM51,63H52V64H51zM53,63H54V64H53zM55,63H56V64H55zM57,63H58V64H57zM58,63H59V64H58zM60,63H61V64H60zM62,63H63V64H62zM66,63H67V64H66zM69,63H70V64H69zM70,63H71V64H70zM2,64H3V65H2zM3,64H4V65H3zM4,64H5V65H4zM5,64H6V65H5zM6,64H7V65H6zM7,64H8V65H7zM8,64H9V65H8zM11,64H12V65H11zM14,64H15V65H14zM15,64H16V65H15zM16,64H17V65H16zM17,64H18V65H17zM20,64H21V65H20zM21,64H22V65H21zM22,64H23V65H22zM23,64H24V65H23zM24,64H25V65H24zM25,64H26V65H25zM26,64H27V65H26zM27,64H28V65H27zM30,64H31V65H30zM32,64H33V65H32zM33,64H34V65H33zM34,64H35V65H34zM36,64H37V65H36zM38,64H39V65H38zM40,64H41V65H40zM42,64H43V65H42zM45,64H46V65H45zM46,64H47V65H46zM50,64H51V65H50zM52,64H53V65H52zM54,64H55V65H54zM55,64H56V65H55zM56,64H57V65H56zM57,64H58V65H57zM58,64H59V65H58zM62,64H63V65H62zM64,64H65V65H64zM66,64H67V65H66zM68,64H69V65H68zM69,64H70V65H69zM2,65H3V66H2zM8,65H9V66H8zM10,65H11V66H10zM13,65H14V66H13zM14,65H15V66H14zM16,65H17V66H16zM18,65H19V66H18zM21,65H22V66H21zM23,65H24V66H23zM26,65H27V66H26zM27,65H28V66H27zM29,65H30V66H29zM31,65H32V66H31zM34,65H35V66H34zM38,65H39V66H38zM39,65H40V66H39zM40,65H41V66H40zM42,65H43V66H42zM43,65H44V66H43zM48,65H49V66H48zM50,65H51V66H50zM51,65H52V66H51zM54,65H55V66H54zM55,65H56V66H55zM56,65H57V66H56zM57,65H58V66H57zM62,65H63V66H62zM66,65H67V66H66zM67,65H68V66H67zM70,65H71V66H70zM2,66H3V67H2zM4,66H5V67H4zM5,66H6V67H5zM6,66H7V67H6zM8,66H9V67H8zM11,66H12V67H11zM14,66H15V67H14zM15,66H16V67H15zM16,66H17V67H16zM17,66H18V67H17zM18,66H19V67H18zM21,66H22V67H21zM23,66H24V67H23zM24,66H25V67H24zM30,66H31V67H30zM32,66H33V67H32zM33,66H34V67H33zM34,66H35V67H34zM35,66H36V67H35zM36,66H37V67H36zM37,66H38V67H37zM38,66H39V67H38zM39,66H40V67H39zM40,66H41V67H40zM44,66H45V67H44zM45,66H46V67H45zM46,66H47V67H46zM47,66H48V67H47zM50,66H51V67H50zM52,66H53V67H52zM55,66H56V67H55zM57,66H58V67H57zM58,66H59V67H58zM60,66H61V67H60zM62,66H63V67H62zM63,66H64V67H63zM64,66H65V67H64zM65,66H66V67H65zM66,66H67V67H66zM68,66H69V67H68zM2,67H3V68H2zM4,67H5V68H4zM5,67H6V68H5zM6,67H7V68H6zM8,67H9V68H8zM10,67H11V68H10zM11,67H12V68H11zM14,67H15V68H14zM15,67H16V68H15zM17,67H18V68H17zM18,67H19V68H18zM19,67H20V68H19zM20,67H21V68H20zM23,67H24V68H23zM24,67H25V68H24zM26,67H27V68H26zM27,67H28V68H27zM32,67H33V68H32zM37,67H38V68H37zM38,67H39V68H38zM40,67H41V68H40zM42,67H43V68H42zM43,67H44V68H43zM46,67H47V68H46zM51,67H52V68H51zM52,67H53V68H52zM55,67H56V68H55zM58,67H59V68H58zM61,67H62V68H61zM63,67H64V68H63zM65,67H66V68H65zM67,67H68V68H67zM68,67H69V68H68zM69,67H70V68H69zM70,67H71V68H70zM2,68H3V69H2zM4,68H5V69H4zM5,68H6V69H5zM6,68H7V69H6zM8,68H9V69H8zM12,68H13V69H12zM13,68H14V69H13zM14,68H15V69H14zM16,68H17V69H16zM18,68H19V69H18zM19,68H20V69H19zM20,68H21V69H20zM23,68H24V69H23zM25,68H26V69H25zM27,68H28V69H27zM28,68H29V69H28zM30,68H31V69H30zM32,68H33V69H32zM33,68H34V69H33zM34,68H35V69H34zM35,68H36V69H35zM36,68H37V69H36zM37,68H38V69H37zM46,68H47V69H46zM47,68H48V69H47zM48,68H49V69H48zM49,68H50V69H49zM51,68H52V69H51zM52,68H53V69H52zM53,68H54V69H53zM54,68H55V69H54zM56,68H57V69H56zM57,68H58V69H57zM60,68H61V69H60zM61,68H62V69H61zM62,68H63V69H62zM63,68H64V69H63zM64,68H65V69H64zM65,68H66V69H65zM66,68H67V69H66zM67,68H68V69H67zM70,68H71V69H70zM2,69H3V70H2zM8,69H9V70H8zM12,69H13V70H12zM13,69H14V70H13zM16,69H17V70H16zM17,69H18V70H17zM18,69H19V70H18zM19,69H20V70H19zM20,69H21V70H20zM24,69H25V70H24zM26,69H27V70H26zM30,69H31V70H30zM35,69H36V70H35zM37,69H38V70H37zM39,69H40V70H39zM41,69H42V70H41zM43,69H44V70H43zM44,69H45V70H44zM47,69H48V70H47zM53,69H54V70H53zM54,69H55V70H54zM58,69H59V70H58zM60,69H61V70H60zM61,69H62V70H61zM62,69H63V70H62zM63,69H64V70H63zM66,69H67V70H66zM2,70H3V71H2zM3,70H4V71H3zM4,70H5V71H4zM5,70H6V71H5zM6,70H7V71H6zM7,70H8V71H7zM8,70H9V71H8zM10,70H11V71H10zM11,70H12V71H11zM13,70H14V71H13zM14,70H15V71H14zM15,70H16V71H15zM16,70H17V71H16zM19,70H20V71H19zM20,70H21V71H20zM23,70H24V71H23zM24,70H25V71H24zM25,70H26V71H25zM26,70H27V71H26zM27,70H28V71H27zM28,70H29V71H28zM29,70H30V71H29zM30,70H31V71H30zM31,70H32V71H31zM32,70H33V71H32zM33,70H34V71H33zM35,70H36V71H35zM36,70H37V71H36zM38,70H39V71H38zM39,70H40V71H39zM41,70H42V71H41zM42,70H43V71H42zM44,70H45V71H44zM45,70H46V71H45zM47,70H48V71H47zM48,70H49V71H48zM50,70H51V71H50zM52,70H53V71H52zM53,70H54V71H53zM54,70H55V71H54zM55,70H56V71H55zM56,70H57V71H56zM60,70H61V71H60zM61,70H62V71H61zM65,70H66V71H65zM69,70H70V71H69z" id="qr-path" fill="#000000" fill-opacity="1" fill-rule="nonzero" stroke="none" /></svg>